<svg width="70" height="70" viewBox="0 0 70 70" fill="none" xmlns="http://www.w3.org/2000/svg">
<mask id="mask0_5570_3634" style="mask-type:alpha" maskUnits="userSpaceOnUse" x="0" y="0" width="70" height="70">
<rect width="70" height="70" fill="#D9D9D9"/>
</mask>
<g mask="url(#mask0_5570_3634)">
<path d="M35 32.0833C42.2917 32.0833 48.4896 30.941 53.5938 28.6563C58.6979 26.3715 61.25 23.625 61.25 20.4167C61.25 17.2083 58.6979 14.4618 53.5938 12.1771C48.4896 9.89236 42.2917 8.75 35 8.75C27.7083 8.75 21.5104 9.89236 16.4062 12.1771C11.3021 14.4618 8.75 17.2083 8.75 20.4167C8.75 23.625 11.3021 26.3715 16.4062 28.6563C21.5104 30.941 27.7083 32.0833 35 32.0833ZM35 39.375C36.9931 39.375 39.4844 39.1684 42.474 38.7552C45.4635 38.342 48.3438 37.6736 51.1146 36.75C53.8854 35.8264 56.2674 34.6233 58.2604 33.1406C60.2535 31.658 61.25 29.8472 61.25 27.7083V35C61.25 37.1389 60.2535 38.9497 58.2604 40.4323C56.2674 41.9149 53.8854 43.1181 51.1146 44.0417C48.3438 44.9653 45.4635 45.6337 42.474 46.0469C39.4844 46.4601 36.9931 46.6667 35 46.6667C33.0069 46.6667 30.5156 46.4601 27.526 46.0469C24.5365 45.6337 21.6563 44.9653 18.8854 44.0417C16.1146 43.1181 13.7326 41.9149 11.7396 40.4323C9.74653 38.9497 8.75 37.1389 8.75 35V27.7083C8.75 29.8472 9.74653 31.658 11.7396 33.1406C13.7326 34.6233 16.1146 35.8264 18.8854 36.75C21.6563 37.6736 24.5365 38.342 27.526 38.7552C30.5156 39.1684 33.0069 39.375 35 39.375ZM35 53.9583C36.9931 53.9583 39.4844 53.7517 42.474 53.3385C45.4635 52.9254 48.3438 52.2569 51.1146 51.3333C53.8854 50.4097 56.2674 49.2066 58.2604 47.724C60.2535 46.2413 61.25 44.4306 61.25 42.2917V49.5833C61.25 51.7222 60.2535 53.533 58.2604 55.0156C56.2674 56.4983 53.8854 57.7014 51.1146 58.625C48.3438 59.5486 45.4635 60.217 42.474 60.6302C39.4844 61.0434 36.9931 61.25 35 61.25C33.0069 61.25 30.5156 61.0434 27.526 60.6302C24.5365 60.217 21.6563 59.5486 18.8854 58.625C16.1146 57.7014 13.7326 56.4983 11.7396 55.0156C9.74653 53.533 8.75 51.7222 8.75 49.5833V42.2917C8.75 44.4306 9.74653 46.2413 11.7396 47.724C13.7326 49.2066 16.1146 50.4097 18.8854 51.3333C21.6563 52.2569 24.5365 52.9254 27.526 53.3385C30.5156 53.7517 33.0069 53.9583 35 53.9583Z" fill="#6C7683"/>
</g>
</svg>
