<svg width="244" height="35" viewBox="0 0 244 35" fill="none" xmlns="http://www.w3.org/2000/svg">
<path d="M0.207031 33.7576L9.16205 8.29394H14.1522L23.1073 33.7576H18.8006L16.8524 28.0497H6.49605L4.51364 33.7576H0.207031ZM7.65815 24.4608H15.622L11.1103 11.1308H12.2382L7.65815 24.4608Z" fill="white"/>
<path d="M25.7522 33.7576V7.88379H29.6144V33.7576H25.7522Z" fill="white"/>
<path d="M42.8117 34.1678C40.966 34.1678 39.3254 33.7462 37.8899 32.9031C36.4771 32.0373 35.372 30.8752 34.5745 29.4168C33.7769 27.9357 33.3782 26.2837 33.3782 24.4608C33.3782 22.5923 33.7769 20.9403 34.5745 19.5048C35.3948 18.0693 36.4885 16.9413 37.8557 16.121C39.2229 15.2779 40.7723 14.8564 42.5041 14.8564C43.8941 14.8564 45.1359 15.0957 46.2297 15.5742C47.3234 16.0527 48.2462 16.7135 48.9982 17.5566C49.7501 18.3769 50.3198 19.3225 50.7072 20.3935C51.1173 21.4644 51.3224 22.6037 51.3224 23.8114C51.3224 24.1076 51.311 24.4152 51.2882 24.7343C51.2654 25.0533 51.2198 25.3495 51.1515 25.6229H36.4202V22.5468H48.964L47.1183 23.9481C47.3462 22.8316 47.2664 21.8404 46.8791 20.9745C46.5145 20.0859 45.9448 19.3909 45.1701 18.8896C44.4181 18.3655 43.5295 18.1034 42.5041 18.1034C41.4787 18.1034 40.5673 18.3655 39.7697 18.8896C38.9722 19.3909 38.357 20.12 37.924 21.0771C37.4911 22.0113 37.3202 23.1506 37.4114 24.495C37.2974 25.7482 37.4683 26.842 37.924 27.7762C38.4026 28.7105 39.0634 29.4396 39.9065 29.9637C40.7723 30.4878 41.7521 30.7498 42.8459 30.7498C43.9624 30.7498 44.908 30.4992 45.6828 29.9979C46.4803 29.4966 47.1069 28.8472 47.5626 28.0497L50.7072 29.5877C50.3426 30.4536 49.7729 31.2397 48.9982 31.9461C48.2462 32.6297 47.3348 33.1766 46.2638 33.5867C45.2157 33.9741 44.065 34.1678 42.8117 34.1678Z" fill="white"/>
<path d="M64.0126 34.1678C62.2352 34.1678 60.606 33.7462 59.1249 32.9031C57.6666 32.0601 56.5045 30.9093 55.6386 29.451C54.7727 27.9927 54.3398 26.3407 54.3398 24.495C54.3398 22.6265 54.7727 20.9745 55.6386 19.539C56.5045 18.0807 57.6666 16.9413 59.1249 16.121C60.5832 15.2779 62.2125 14.8564 64.0126 14.8564C65.8355 14.8564 67.4647 15.2779 68.9002 16.121C70.3586 16.9413 71.5093 18.0807 72.3524 19.539C73.2182 20.9745 73.6512 22.6265 73.6512 24.495C73.6512 26.3635 73.2182 28.0269 72.3524 29.4852C71.4865 30.9435 70.3244 32.0942 68.8661 32.9373C67.4077 33.7576 65.7899 34.1678 64.0126 34.1678ZM64.0126 30.5789C65.1063 30.5789 66.0747 30.3169 66.9178 29.7928C67.7609 29.2687 68.4217 28.551 68.9002 27.6395C69.4015 26.7053 69.6522 25.6571 69.6522 24.495C69.6522 23.3329 69.4015 22.2961 68.9002 21.3847C68.4217 20.4732 67.7609 19.7554 66.9178 19.2314C66.0747 18.7073 65.1063 18.4452 64.0126 18.4452C62.9416 18.4452 61.9732 18.7073 61.1073 19.2314C60.2642 19.7554 59.592 20.4732 59.0907 21.3847C58.6122 22.2961 58.373 23.3329 58.373 24.495C58.373 25.6571 58.6122 26.7053 59.0907 27.6395C59.592 28.551 60.2642 29.2687 61.1073 29.7928C61.9732 30.3169 62.9416 30.5789 64.0126 30.5789Z" fill="white"/>
<path d="M174.044 33.7579V8.2942H183.307C185.016 8.2942 186.52 8.61321 187.818 9.25123C189.14 9.86646 190.165 10.7779 190.895 11.9856C191.624 13.1705 191.988 14.5946 191.988 16.258C191.988 17.8986 191.612 19.3114 190.86 20.4963C190.131 21.6812 189.117 22.5926 187.818 23.2306C186.52 23.8686 185.016 24.1876 183.307 24.1876H178.077V33.7579H174.044ZM178.077 20.5988H183.409C184.321 20.5988 185.118 20.4165 185.802 20.0519C186.485 19.6874 187.021 19.1861 187.408 18.548C187.796 17.8872 187.989 17.1125 187.989 16.2238C187.989 15.3352 187.796 14.5718 187.408 13.9338C187.021 13.273 186.485 12.7717 185.802 12.4299C185.118 12.0653 184.321 11.883 183.409 11.883H178.077V20.5988Z" fill="white"/>
<path d="M204.018 34.168C202.241 34.168 200.611 33.7465 199.13 32.9034C197.672 32.0603 196.51 30.9096 195.644 29.4513C194.778 27.993 194.345 26.3409 194.345 24.4953C194.345 22.6268 194.778 20.9748 195.644 19.5392C196.51 18.0809 197.672 16.9416 199.13 16.1213C200.588 15.2782 202.218 14.8567 204.018 14.8567C205.841 14.8567 207.47 15.2782 208.906 16.1213C210.364 16.9416 211.515 18.0809 212.358 19.5392C213.224 20.9748 213.656 22.6268 213.656 24.4953C213.656 26.3637 213.224 28.0271 212.358 29.4855C211.492 30.9438 210.33 32.0945 208.871 32.9376C207.413 33.7579 205.795 34.168 204.018 34.168ZM204.018 30.5792C205.112 30.5792 206.08 30.3172 206.923 29.7931C207.766 29.269 208.427 28.5512 208.906 27.6398C209.407 26.7055 209.657 25.6574 209.657 24.4953C209.657 23.3332 209.407 22.2964 208.906 21.3849C208.427 20.4735 207.766 19.7557 206.923 19.2316C206.08 18.7075 205.112 18.4455 204.018 18.4455C202.947 18.4455 201.978 18.7075 201.113 19.2316C200.269 19.7557 199.597 20.4735 199.096 21.3849C198.617 22.2964 198.378 23.3332 198.378 24.4953C198.378 25.6574 198.617 26.7055 199.096 27.6398C199.597 28.5512 200.269 29.269 201.113 29.7931C201.978 30.3172 202.947 30.5792 204.018 30.5792Z" fill="white"/>
<path d="M226.348 34.168C224.571 34.168 222.941 33.7465 221.46 32.9034C220.002 32.0603 218.84 30.9096 217.974 29.4513C217.108 27.993 216.675 26.3409 216.675 24.4953C216.675 22.6268 217.108 20.9748 217.974 19.5392C218.84 18.0809 220.002 16.9416 221.46 16.1213C222.919 15.2782 224.548 14.8567 226.348 14.8567C228.171 14.8567 229.8 15.2782 231.236 16.1213C232.694 16.9416 233.845 18.0809 234.688 19.5392C235.554 20.9748 235.987 22.6268 235.987 24.4953C235.987 26.3637 235.554 28.0271 234.688 29.4855C233.822 30.9438 232.66 32.0945 231.201 32.9376C229.743 33.7579 228.125 34.168 226.348 34.168ZM226.348 30.5792C227.442 30.5792 228.41 30.3172 229.253 29.7931C230.096 29.269 230.757 28.5512 231.236 27.6398C231.737 26.7055 231.988 25.6574 231.988 24.4953C231.988 23.3332 231.737 22.2964 231.236 21.3849C230.757 20.4735 230.096 19.7557 229.253 19.2316C228.41 18.7075 227.442 18.4455 226.348 18.4455C225.277 18.4455 224.309 18.7075 223.443 19.2316C222.6 19.7557 221.927 20.4735 221.426 21.3849C220.948 22.2964 220.708 23.3332 220.708 24.4953C220.708 25.6574 220.948 26.7055 221.426 27.6398C221.927 28.5512 222.6 29.269 223.443 29.7931C224.309 30.3172 225.277 30.5792 226.348 30.5792Z" fill="white"/>
<path d="M239.757 33.7579V7.88405H243.62V33.7579H239.757Z" fill="white"/>
<path fill-rule="evenodd" clip-rule="evenodd" d="M79.845 0.875294C79.845 0.484649 80.1617 0.167969 80.5523 0.167969H92.3515H100.329H105.932L101.224 33.8932H97.9303C97.8999 33.8972 97.8689 33.8993 97.8375 33.8993H86.0924C85.7018 33.8993 85.3851 33.5826 85.3851 33.1919C85.3851 32.8013 85.7018 32.4846 86.0924 32.4846H94.3142L94.9085 32.4846C95.2991 32.4846 95.6158 32.1679 95.6158 31.7773C95.6158 31.3866 95.2991 31.0699 94.9085 31.0699H94.5124L94.7287 29.5259H90.9876C90.5969 29.5259 90.2802 29.2092 90.2802 28.8186C90.2802 28.4279 90.5969 28.1113 90.9876 28.1113H94.9268L94.9268 28.1112H95.2204C95.611 28.1112 95.9277 27.7946 95.9277 27.4039C95.9277 27.0133 95.611 26.6966 95.2204 26.6966H95.1249L95.3414 25.1515H96.0603C96.4509 25.1515 96.7676 24.8348 96.7676 24.4442C96.7676 24.0536 96.4509 23.7369 96.0603 23.7369H85.3314C84.9586 23.7169 84.6625 23.4083 84.6625 23.0306C84.6625 22.6399 84.9792 22.3232 85.3698 22.3232H95.7375L96.2426 18.7168H97.1649C97.5556 18.7168 97.8722 18.4001 97.8722 18.0095C97.8722 17.6188 97.5556 17.3022 97.1649 17.3022H96.4408L96.4408 17.3021H87.6573C87.2666 17.3021 86.95 16.9855 86.95 16.5948C86.95 16.2042 87.2666 15.8875 87.6573 15.8875H96.6389L97.1193 12.4581H98.6406C99.0313 12.4581 99.3479 12.1414 99.3479 11.7508C99.3479 11.3601 99.0313 11.0434 98.6406 11.0434H97.3174L97.3174 11.0434H85.4321C85.0415 11.0434 84.7248 10.7267 84.7248 10.3361C84.7248 9.94546 85.0415 9.62878 85.4321 9.62878H97.5155L97.5175 9.61468C97.8405 9.54928 98.0837 9.26376 98.0837 8.92144C98.0837 8.64842 97.9291 8.41154 97.7026 8.29363L97.98 6.31309H78.3294C77.9388 6.31309 77.6221 5.99641 77.6221 5.60576C77.6221 5.21512 77.9388 4.89844 78.3294 4.89844H91.7015L91.9627 2.99729H92.405C92.7957 2.99729 93.1123 2.68061 93.1123 2.28996C93.1123 1.89932 92.7957 1.58264 92.405 1.58264H92.1571L92.1571 1.58262H80.5523C80.1617 1.58262 79.845 1.26594 79.845 0.875294ZM133.424 8.06437C133.033 8.06437 132.716 8.38105 132.716 8.77169C132.716 9.16234 133.033 9.47902 133.424 9.47902H141.925C141.908 9.48717 141.891 9.49536 141.874 9.50357C142.175 9.58491 142.396 9.85983 142.396 10.1865C142.396 10.5771 142.079 10.8938 141.689 10.8938H139.568C139.157 11.1979 138.763 11.5244 138.385 11.8734H125.997C125.607 11.8734 125.29 12.1901 125.29 12.5807C125.29 12.9714 125.607 13.2881 125.997 13.2881H137.054C136.487 13.9873 135.994 14.7413 135.575 15.5502H137.892C138.283 15.5502 138.599 15.8669 138.599 16.2575C138.599 16.6482 138.283 16.9649 137.892 16.9649H134.941L134.924 17.01C134.85 16.9819 134.769 16.966 134.685 16.9649H132.077L132.067 16.9648H118.93C118.539 16.9648 118.223 17.2815 118.223 17.6721C118.223 18.0628 118.539 18.3794 118.93 18.3794H127.521L127.527 18.3794H136.57C136.96 18.3794 137.277 18.6961 137.277 19.0867C137.277 19.4774 136.96 19.7941 136.57 19.7941H127.527L127.517 19.794H127.111C126.72 19.794 126.404 20.1107 126.404 20.5013C126.404 20.892 126.72 21.2086 127.111 21.2086H134.102L134.102 21.2089H136.816C137.206 21.2089 137.523 21.5256 137.523 21.9162C137.523 22.3069 137.206 22.6235 136.816 22.6235H134.121C134.142 22.9542 134.174 23.2795 134.218 23.5994H130.432C130.041 23.5994 129.724 23.9161 129.724 24.3067C129.724 24.6974 130.041 25.014 130.432 25.014H134.499L134.499 25.0141H136.783C137.174 25.0141 137.49 25.3308 137.49 25.7215C137.49 26.1121 137.174 26.4288 136.783 26.4288H134.969C135.193 26.9772 135.459 27.5059 135.768 28.0151C135.814 28.0911 135.861 28.1665 135.908 28.2413H138.681C139.071 28.2413 139.388 28.558 139.388 28.9486C139.388 29.3393 139.071 29.6559 138.681 29.6559H128.385L128.375 29.6559H125.409C125.019 29.6559 124.702 29.9725 124.702 30.3632C124.702 30.7538 125.019 31.0705 125.409 31.0705H138.397L138.397 31.0706H140.546C140.937 31.0706 141.253 31.3873 141.253 31.7779C141.253 32.1686 140.937 32.4853 140.546 32.4853H134.141C133.755 32.4907 133.444 32.8053 133.444 33.1925C133.444 33.5832 133.761 33.8999 134.151 33.8999H146.605L146.677 33.9L146.748 33.8999H147.069C147.105 33.8999 147.14 33.8972 147.175 33.892C148.893 33.8366 150.522 33.4922 152.064 32.8588C153.754 32.1647 155.248 31.199 156.546 29.9616C157.844 28.6941 158.855 27.2455 159.579 25.6158C160.303 23.956 160.666 22.1754 160.666 20.2741C160.666 17.8899 160.107 15.7925 158.991 13.9817C157.904 12.1408 156.41 10.7073 154.509 9.6812C152.608 8.62493 150.48 8.09679 148.126 8.09679C147.89 8.09679 147.655 8.10199 147.423 8.11237C147.343 8.08138 147.257 8.06437 147.166 8.06437H133.424ZM148.564 19.3235C148.181 19.3326 147.873 19.6457 147.873 20.0306C147.873 20.4213 148.19 20.738 148.581 20.738H153.589L153.589 20.7381H155.467C155.858 20.7381 156.175 21.0547 156.175 21.4454C156.175 21.836 155.858 22.1527 155.467 22.1527H151.944C151.646 22.2363 151.428 22.5095 151.428 22.8338C151.428 23.2244 151.745 23.5411 152.136 23.5411H152.968L152.968 23.5412H154.297C154.688 23.5412 155.004 23.8579 155.004 24.2485C155.004 24.6392 154.688 24.9558 154.297 24.9558H148.16C147.774 24.9612 147.463 25.2758 147.463 25.6631C147.463 26.0537 147.78 26.3704 148.17 26.3704H150.907L150.884 26.3895C151.196 26.4632 151.428 26.7434 151.428 27.0779C151.428 27.4685 151.112 27.7852 150.721 27.7852H147.009C146.929 27.7875 146.849 27.7887 146.768 27.7887C145.621 27.7887 144.625 27.5322 143.78 27.0192C142.935 26.5061 142.286 25.812 141.834 24.9368C141.381 24.0314 141.155 22.9902 141.155 21.8132C141.155 20.3948 141.441 19.1122 142.015 17.9654C142.588 16.8186 143.388 15.9132 144.414 15.2493C145.47 14.5551 146.677 14.2081 148.036 14.2081C149.182 14.2081 150.163 14.4646 150.978 14.9777C151.033 15.0107 151.086 15.0447 151.139 15.0794H152.362C152.752 15.0794 153.069 15.3961 153.069 15.7867C153.069 16.1115 152.85 16.3851 152.552 16.4682L152.569 16.494H152.372L152.362 16.494H149.725C149.339 16.4995 149.027 16.814 149.027 17.2013C149.027 17.5919 149.344 17.9086 149.735 17.9086H153.263L153.263 17.9089H153.836C154.227 17.9089 154.543 18.2255 154.543 18.6162C154.543 19.0068 154.227 19.3235 153.836 19.3235H148.564ZM105.444 3.29523C105.054 3.29523 104.737 3.61191 104.737 4.00256C104.737 4.3932 105.054 4.70988 105.444 4.70988H117.474L117.474 4.70997H118.168C118.558 4.70997 118.875 5.02665 118.875 5.4173C118.875 5.80794 118.558 6.12462 118.168 6.12462H117.142C116.984 6.53891 116.777 6.91034 116.52 7.2389H116.716C117.106 7.2389 117.423 7.55558 117.423 7.94623C117.423 8.33687 117.106 8.65355 116.716 8.65355H110.812C110.765 8.65355 110.72 8.64901 110.675 8.64034H102.788C102.397 8.64034 102.08 8.95702 102.08 9.34766C102.08 9.73831 102.397 10.055 102.788 10.055H112.533L112.269 11.9562H114.108C114.499 11.9562 114.815 12.2729 114.815 12.6635C114.815 13.0542 114.499 13.3709 114.108 13.3709H109.607L109.598 13.3708H108.887C108.496 13.3708 108.18 13.6875 108.18 14.0781C108.18 14.4688 108.496 14.7855 108.887 14.7855H111.878L111.878 14.7855H118.65C119.04 14.7855 119.357 15.1022 119.357 15.4929C119.357 15.8835 119.04 16.2002 118.65 16.2002H115.845L115.602 17.9408H101.532C101.141 17.9408 100.825 18.2575 100.825 18.6481C100.825 19.0387 101.141 19.3554 101.532 19.3554H115.405L115.405 19.3555H116.085C116.476 19.3555 116.792 19.6722 116.792 20.0628C116.792 20.4535 116.476 20.7702 116.085 20.7702H115.207L114.812 23.5993H108.514C108.124 23.5993 107.807 23.916 107.807 24.3066C107.807 24.6973 108.124 25.014 108.514 25.014H114.625L114.625 25.0141H115.627C116.018 25.0141 116.335 25.3307 116.335 25.7214C116.335 26.112 116.018 26.4287 115.627 26.4287H114.561C114.57 27.0689 114.635 27.6731 114.756 28.2412H115.62C116.01 28.2412 116.327 28.5579 116.327 28.9485C116.327 29.3392 116.01 29.6558 115.62 29.6558H106.521L106.513 29.6558H99.9002C99.5096 29.6558 99.1929 29.9725 99.1929 30.3631C99.1929 30.7538 99.5096 31.0704 99.9002 31.0704H116.037L116.037 31.0705H119.443C119.834 31.0705 120.15 31.3872 120.15 31.7779C120.15 32.1685 119.834 32.4852 119.443 32.4852H110.695C110.308 32.4897 109.996 32.8046 109.996 33.1925C109.996 33.5831 110.312 33.8998 110.703 33.8998H123.852C123.911 33.8998 123.969 33.8924 124.024 33.8785C124.209 33.8716 124.4 33.8626 124.597 33.8517C125.17 33.8215 125.683 33.7461 126.136 33.6253L126.634 27.8762C126.242 27.9366 125.91 27.9818 125.638 28.012H124.869C123.963 28.012 123.239 27.8913 122.696 27.6499C122.183 27.4084 121.836 27.0312 121.654 26.5181C121.473 25.9749 121.443 25.2808 121.564 24.4358L122.922 14.7935H128.626L129.441 8.90857H123.737L124.552 3.29523H122.892H117.671H105.444Z" fill="#0475FF"/>
</svg>
