<svg xmlns="http://www.w3.org/2000/svg" viewBox="0 0 394 50"><path d="M.7,49,17.47,1.32h9.35L43.58,49H35.52L31.87,38.31H12.48L8.77,49Zm14-17.41H29.57l-8.45-25h2.11Z" fill="#fff"/><path d="M48.54,49V.55h7.23V49Z" fill="#fff"/><path d="M80.48,49.77a17.85,17.85,0,0,1-9.22-2.37,17.21,17.21,0,0,1-6.2-6.53,19.15,19.15,0,0,1-2.24-9.28,18.72,18.72,0,0,1,2.24-9.28A17,17,0,0,1,71.2,16a16.23,16.23,0,0,1,8.7-2.37,17.35,17.35,0,0,1,7,1.34,14.83,14.83,0,0,1,5.18,3.71A15.57,15.57,0,0,1,95.26,24a17.65,17.65,0,0,1,1.16,6.4c0,.55,0,1.13-.07,1.72a10.29,10.29,0,0,1-.25,1.67H68.51V28H92l-3.46,2.62a9,9,0,0,0-.44-5.57,8.32,8.32,0,0,0-3.2-3.9,8.55,8.55,0,0,0-5-1.47,9.16,9.16,0,0,0-8.57,5.57,13,13,0,0,0-1,6.4,11.31,11.31,0,0,0,1,6.14A10.17,10.17,0,0,0,75,41.9a10.43,10.43,0,0,0,5.5,1.47A9.59,9.59,0,0,0,85.86,42a10.33,10.33,0,0,0,3.52-3.65l5.88,2.88a12.55,12.55,0,0,1-3.2,4.42,15.94,15.94,0,0,1-5.12,3.07A18.36,18.36,0,0,1,80.48,49.77Z" fill="#fff"/><path d="M120.18,49.77A18.14,18.14,0,0,1,111,47.4a17.77,17.77,0,0,1-9-15.74,17.6,17.6,0,0,1,2.43-9.28A17.29,17.29,0,0,1,111,16a17.93,17.93,0,0,1,9.15-2.37A17.73,17.73,0,0,1,129.33,16a16.9,16.9,0,0,1,6.46,6.4,17.61,17.61,0,0,1,2.44,9.28A18,18,0,0,1,135.79,41a17.79,17.79,0,0,1-6.52,6.46A18.18,18.18,0,0,1,120.18,49.77Zm0-6.72a10.1,10.1,0,0,0,5.44-1.47,10.34,10.34,0,0,0,3.71-4,12.23,12.23,0,0,0,1.41-5.88,11.89,11.89,0,0,0-1.41-5.83,10.31,10.31,0,0,0-3.71-4,10.1,10.1,0,0,0-5.44-1.47,10.3,10.3,0,0,0-5.44,1.47,10.79,10.79,0,0,0-3.78,4,12.43,12.43,0,0,0-1.34,5.83A12.79,12.79,0,0,0,111,37.54a10.82,10.82,0,0,0,3.78,4A10.3,10.3,0,0,0,120.18,43.05Z" fill="#fff"/><path d="M263.3,49V1.32h17.35a19,19,0,0,1,8.45,1.79,13,13,0,0,1,5.76,5.12,15,15,0,0,1,2,8,14.5,14.5,0,0,1-2.11,7.94,13.53,13.53,0,0,1-5.69,5.12,19,19,0,0,1-8.45,1.79h-9.79V49Zm7.56-24.64h10a9.4,9.4,0,0,0,4.48-1,7.79,7.79,0,0,0,3-2.82,8.51,8.51,0,0,0,1.09-4.35,8.14,8.14,0,0,0-1.09-4.29,7.12,7.12,0,0,0-3-2.82,9.4,9.4,0,0,0-4.48-1h-10Z" fill="#fff"/><path d="M319.43,49.77a18.14,18.14,0,0,1-9.15-2.37,17.77,17.77,0,0,1-9-15.74,17.6,17.6,0,0,1,2.43-9.28,17.36,17.36,0,0,1,6.53-6.4,17.93,17.93,0,0,1,9.15-2.37A17.73,17.73,0,0,1,328.58,16a16.9,16.9,0,0,1,6.46,6.4,17.51,17.51,0,0,1,2.44,9.28,17.83,17.83,0,0,1-9,15.8A18.18,18.18,0,0,1,319.43,49.77Zm0-6.72a10.1,10.1,0,0,0,5.44-1.47,10.34,10.34,0,0,0,3.71-4A12.23,12.23,0,0,0,330,31.66a11.89,11.89,0,0,0-1.41-5.83,10.31,10.31,0,0,0-3.71-4,10.1,10.1,0,0,0-5.44-1.47A10.3,10.3,0,0,0,314,21.8a10.79,10.79,0,0,0-3.78,4,12.43,12.43,0,0,0-1.34,5.83,12.79,12.79,0,0,0,1.34,5.88,10.82,10.82,0,0,0,3.78,4A10.3,10.3,0,0,0,319.43,43.05Z" fill="#fff"/><path d="M361.24,49.77a18.14,18.14,0,0,1-9.15-2.37,17.77,17.77,0,0,1-9-15.74,17.6,17.6,0,0,1,2.43-9.28,17.36,17.36,0,0,1,6.53-6.4,17.93,17.93,0,0,1,9.15-2.37A17.73,17.73,0,0,1,370.39,16a16.92,16.92,0,0,1,6.47,6.4,17.6,17.6,0,0,1,2.43,9.28,17.78,17.78,0,0,1-9,15.8A18.18,18.18,0,0,1,361.24,49.77Zm0-6.72a10.1,10.1,0,0,0,5.44-1.47,10.26,10.26,0,0,0,3.71-4,12.23,12.23,0,0,0,1.41-5.88,11.89,11.89,0,0,0-1.41-5.83,10.23,10.23,0,0,0-3.71-4,10.1,10.1,0,0,0-5.44-1.47,10.3,10.3,0,0,0-5.44,1.47,10.79,10.79,0,0,0-3.78,4,12.43,12.43,0,0,0-1.34,5.83A12.79,12.79,0,0,0,352,37.54a10.82,10.82,0,0,0,3.78,4A10.3,10.3,0,0,0,361.24,43.05Z" fill="#fff"/><path d="M386.35,49V.55h7.23V49Z" fill="#fff"/><path d="M210.46,14.24a1,1,0,0,1,1-1h14.45a1,1,0,0,1,.36.07l1,0a18.2,18.2,0,0,1,9,2.24,16.12,16.12,0,0,1,6.34,6.08A16.65,16.65,0,0,1,245,30.5a18.78,18.78,0,0,1-1.53,7.56,19.91,19.91,0,0,1-4.29,6.14,20.34,20.34,0,0,1-6.34,4.1A19.91,19.91,0,0,1,226,49.76h-15.7a1,1,0,0,1,0-2h6.3a1,1,0,0,0,0-2h-5.73a1,1,0,0,1,0-2h3.09a1,1,0,0,0,0-2H210c-.06-.11-.13-.21-.2-.32a17.4,17.4,0,0,1-1.13-2.24h2.57a1,1,0,0,0,0-2H202a1,1,0,0,1,0-2h5.64c-.06-.46-.11-.92-.14-1.38h3.81a1,1,0,0,0,0-2H205a1,1,0,0,1,0-2h5.93a1,1,0,0,0,0-2H200a1,1,0,0,1,0-2H212.8a1,1,0,0,0,0-2h-3.28c.23-.45.47-.88.74-1.3h-1.38a1,1,0,0,1,0-2h8.35a1,1,0,0,0,0-2H213.6c.5-.45,1-.88,1.57-1.29h3a1,1,0,0,0,.27-2l.07,0h-7A1,1,0,0,1,210.46,14.24Zm6.95,18.44a15.16,15.16,0,0,1,.08-1.52.92.92,0,0,0,.06-.33.28.28,0,0,0,0-.09,11.71,11.71,0,0,1,1.09-3.5A9.58,9.58,0,0,1,222,23.4a9.11,9.11,0,0,1,5.12-1.47A7.61,7.61,0,0,1,231.3,23l.23.14h1.72a1,1,0,0,1,1,1,1,1,0,0,1-.73,1l0,0h-4a1,1,0,0,0,0,2h5.8a1,1,0,0,1,0,2h-7.43a1,1,0,0,0,0,2h9.74a1,1,0,1,1,0,2h-5a1,1,0,0,0,.27,2H236a1,1,0,0,1,0,2h-8.66a1,1,0,1,0,0,2h3.87l0,0a1,1,0,0,1-.23,2h-5.58A8,8,0,0,1,221.12,40a7.41,7.41,0,0,1-2.75-2.94A9.78,9.78,0,0,1,217.41,32.68Z" fill="#fff" fill-rule="evenodd"/><path d="M148.35,1.32a1,1,0,0,0,0,2h14.26a1,1,0,0,1,0,2h-5.09l-.09.71a1,1,0,0,1,.81,1,1,1,0,0,1-1,1h-2.36a1,1,0,0,0,0,2H166l-.38,2.69h.69a1,1,0,0,1,0,2H153.58a1,1,0,0,0,0,2h14.34a1,1,0,0,1,0,2h-3.11l-.68,4.84h-5.52a1,1,0,0,0,0,2h6.27a1,1,0,0,1,0,2h-1.31l-.71,5.1h-6.48a1,1,0,0,0,0,2h9.27a1,1,0,0,1,0,2H162.3L162,38.83h.14a1,1,0,0,1,0,2H159a1,1,0,0,0,0,2h2.39l-.3,2.18h.56a1,1,0,0,1,0,2h-9.31a1,1,0,0,0,0,2h18.24l6.65-47.68H148.35Z" fill="#fff" fill-rule="evenodd"/><path d="M183.08,45.39a1,1,0,0,1,0-2h3.33a1,1,0,0,0,0-2h-1.22a13.94,13.94,0,0,1-.28-2.56h2.27a1,1,0,0,0,0-2h-9.27a1,1,0,0,1,0-2h7.36l.56-4h3.35a1,1,0,0,0,0-2h-6.27a1,1,0,0,1,0-2h3.48l.34-2.47h4a1,1,0,0,0,0-2h-11a1,1,0,0,1,0-2h4.54a1,1,0,0,0,0-2h-2.59l.37-2.68h-1.29a1,1,0,0,1-.13-2h8.48a1,1,0,0,0,0-2h-1.43a5.79,5.79,0,0,0,.88-1.58h1.05a1,1,0,0,0,0-2h-6.7a1,1,0,0,1,0-2H199l-1.15,7.94H206l-1.15,8.32h-8.06L194.82,36a6.48,6.48,0,0,0,.12,2.94,2.72,2.72,0,0,0,1.47,1.6,7.75,7.75,0,0,0,3.08.51h1.08c.39,0,.86-.1,1.41-.19l-.7,8.13a10.56,10.56,0,0,1-2.18.32l-.81,0a.93.93,0,0,1-.24,0H182.51a1,1,0,0,1,0-2h9.31a1,1,0,0,0,0-2h-8.74Z" fill="#fff" fill-rule="evenodd"/></svg>